<?xml version="1.0" encoding="UTF-8" standalone="no"?>
<!-- Created with Inkscape (http://www.inkscape.org/) -->

<svg
   xmlns:dc="http://purl.org/dc/elements/1.1/"
   xmlns:cc="http://creativecommons.org/ns#"
   xmlns:rdf="http://www.w3.org/1999/02/22-rdf-syntax-ns#"
   xmlns:svg="http://www.w3.org/2000/svg"
   xmlns="http://www.w3.org/2000/svg"
   version="1.1"
   width="16"
   height="16"
   id="svg2">
  <metadata
     id="metadata10">
    <rdf:RDF>
      <cc:Work
         rdf:about="">
        <dc:format>image/svg+xml</dc:format>
        <dc:type
           rdf:resource="http://purl.org/dc/dcmitype/StillImage" />
        <dc:title></dc:title>
      </cc:Work>
    </rdf:RDF>
  </metadata>
  <defs
     id="defs8" />
  <path
     d="m 3.51,13.925 c 0.194,0.194 0.512,0.195 0.706,10e-4 l 3.432,-3.431 c 0.194,-0.194 0.514,-0.194 0.708,0 l 3.432,3.431 c 0.192,0.194 0.514,0.193 0.707,-10e-4 L 13.9,12.508 c 0.191,-0.195 0.189,-0.514 -0.002,-0.709 l -3.397,-3.4 C 10.309,8.206 10.309,7.885 10.499,7.691 L 13.9,4.261 c 0.189,-0.195 0.189,-0.515 0,-0.709 L 12.493,2.134 C 12.298,1.939 11.98,1.939 11.786,2.133 L 8.356,5.564 C 8.161,5.758 7.84,5.758 7.648,5.564 L 4.216,2.133 C 4.021,1.938 3.704,1.939 3.51,2.134 L 2.103,3.551 c -0.194,0.195 -0.194,0.515 0,0.71 L 5.506,7.69 C 5.699,7.885 5.699,8.204 5.505,8.398 l -3.4,3.399 C 1.911,11.992 1.91,12.313 2.104,12.506 l 1.406,1.419 z"
     id="path4"
     style="fill:#1a1a1a" />
</svg>
